HIERARCHY
ROOT Hips
{
	OFFSET 0.00000 0.00000 0.00000
	CHANNELS 6 Xposition Yposition Zposition Zrotation Yrotation Xrotation 
	JOINT LHipJoint
	{
		OFFSET 0 0 0
		CHANNELS 3 Zrotation Yrotation Xrotation
		JOINT LeftHip
		{
			OFFSET 1.84395 -1.68683 0.74144
			CHANNELS 3 Zrotation Yrotation Xrotation
			JOINT LeftKnee
			{
				OFFSET 2.27037 -6.23779 0.00000
				CHANNELS 3 Zrotation Yrotation Xrotation
				JOINT LeftAnkle
				{
					OFFSET 2.56918 -7.05877 0.00000
					CHANNELS 3 Zrotation Yrotation Xrotation
					JOINT LeftToe
					{
						OFFSET 0.22276 -0.61202 1.71784
						CHANNELS 3 Zrotation Yrotation Xrotation
						End Site
						{
							OFFSET 0.00000 -0.00000 0.91613
						}
					}
				}
			}
		}
	}
	JOINT RHipJoint
	{
		OFFSET 0 0 0
		CHANNELS 3 Zrotation Yrotation Xrotation
		JOINT RightHip
		{
			OFFSET -1.76833 -1.68684 0.74144
			CHANNELS 3 Zrotation Yrotation Xrotation
			JOINT RightKnee
			{
				OFFSET -2.49360 -6.85110 0.00000
				CHANNELS 3 Zrotation Yrotation Xrotation
				JOINT RightAnkle
				{
					OFFSET -2.55538 -7.02085 0.00000
					CHANNELS 3 Zrotation Yrotation Xrotation
					JOINT RightToe
					{
						OFFSET -0.21516 -0.59115 1.68050
						CHANNELS 3 Zrotation Yrotation Xrotation
						End Site
						{
							OFFSET -0.00000 -0.00000 0.89604
						}
					}
				}
			}
		}
	}
	JOINT lowerback
	{
		OFFSET 0 0 0
		CHANNELS 3 Zrotation Yrotation Xrotation
		JOINT Chest
		{
			OFFSET 0.06382 1.72312 -0.19613
			CHANNELS 3 Zrotation Yrotation Xrotation
			JOINT Chest2
			{
				OFFSET -0.00055 1.73507 0.23859
				CHANNELS 3 Zrotation Yrotation Xrotation
				JOINT lowerneck
				{
					OFFSET 0 0 0
					CHANNELS 3 Zrotation Yrotation Xrotation
					JOINT Neck
					{
						OFFSET 0.03638 1.65562 0.09633
						CHANNELS 3 Zrotation Yrotation Xrotation
						JOINT Head
						{
							OFFSET 0.06388 1.62807 -0.32386
							CHANNELS 3 Zrotation Yrotation Xrotation
							End Site
							{
								OFFSET 0.00995 1.67644 -0.12021
							}
						}
					}
				}
				JOINT LeftCollar
				{
					OFFSET 0 0 0
					CHANNELS 3 Zrotation Yrotation Xrotation
					JOINT LeftShoulder
					{
						OFFSET 3.09648 1.42991 0.28122
CHANNELS 3 Zrotation Xrotation Yrotation
						JOINT LeftElbow
						{
OFFSET 0 -5.118780 -0.000000
CHANNELS 3 Zrotation Xrotation Yrotation
							JOINT LeftWrist
							{
OFFSET 0 -3.599710 0.000000
CHANNELS 3 Zrotation Xrotation Yrotation
								JOINT lhand
								{
									OFFSET 0 0 0
CHANNELS 3 Zrotation Xrotation Yrotation
									JOINT LFingers
									{
OFFSET 0 -0.628770 0.000000
CHANNELS 3 Zrotation Xrotation Yrotation
										End Site
										{
OFFSET 0 -0.506930 0.000000
										}
									}
								}
								JOINT LThumb
								{
OFFSET 0 0.000000 0.000000
CHANNELS 3 Zrotation Xrotation Yrotation
									End Site
									{
OFFSET 0 -0.514670 0.514670
									}
								}
							}
						}
					}
				}
				JOINT RightCollar
				{
					OFFSET 0 0 0
					CHANNELS 3 Zrotation Yrotation Xrotation
					JOINT RightShoulder
					{
						OFFSET -3.33565 1.14597 0.05047
CHANNELS 3 Zrotation Xrotation Yrotation
						JOINT RightElbow
						{
OFFSET 0 -5.490200 0.000000
CHANNELS 3 Zrotation Xrotation Yrotation
							JOINT RightWrist
							{
OFFSET 0 -3.206590 -0.000000
CHANNELS 3 Zrotation Xrotation Yrotation
								JOINT rhand
								{
									OFFSET 0 0 0
CHANNELS 3 Zrotation Xrotation Yrotation
									JOINT RFingers
									{
OFFSET 0 -0.691880 0.000000
CHANNELS 3 Zrotation Xrotation Yrotation
										End Site
										{
OFFSET 0 -0.557810 0.000000
										}
									}
								}
								JOINT RThumb
								{
OFFSET 0 0.000000 0.000000
CHANNELS 3 Zrotation Xrotation Yrotation
									End Site
									{
OFFSET 0 -0.566330 0.566330
									}
								}
							}
						}
					}
				}
			}
		}
	}
}
MOTION
Frames: 8
Frame Time: 0.008333333333333333
0.889996 17.559951 8.108060 -9.637995 -3.403116 12.744777 0.000000 0.000000 0.000000 -10.779733 -25.798669 4.261375 0.000150 0.073874 0.203030 -3.030985 31.312323 -25.458177 0.047600 1.407797 3.871642 0.000000 0.000000 0.000000 23.210394 26.102172 -0.419268 -0.050799 -1.454990 4.001573 1.073870 -21.762509 -21.380349 -0.034657 -1.199114 3.296915 7.297415 1.682440 5.240774 2.895887 3.293699 -7.138840 -1.425070 1.167018 -10.388010 -5.309961 -6.720136 -10.517673 6.916318 -9.925070 21.156952 2.113523 -4.416886 8.967980 0.000000 0.000000 0.000000 -1.265850 -16.961233 -53.176744 52.550370 -53.973739 28.224076 41.906162 20.429246 15.991452 0.000000 0.000000 0.000000 -7.125000 0.000000 0.000000 9.211670 9.136867 7.735416 0.000000 0.000000 0.000000 -2.494898 -31.444455 62.548504 -64.567970 -57.389695 -38.170613 -17.364711 60.790712 61.515367 0.000000 0.000000 0.000000 7.125000 0.000000 0.000000 92.301800 -77.539196 105.093098
0.870346 17.568898 8.142267 -8.168282 -2.816298 13.052511 0.000000 0.000000 0.000000 -12.463658 -27.276039 4.408924 0.000050 0.030569 0.084076 -3.207875 31.896231 -25.493726 0.042299 1.326934 3.648855 0.000000 0.000000 0.000000 21.357725 26.340740 -0.753317 -0.053057 -1.486246 4.087765 1.114617 -22.417241 -22.369565 -0.060487 -1.586286 4.363699 5.309847 1.508645 4.348721 2.740279 2.771311 -7.168893 -0.397099 1.072720 -9.975522 -5.400669 -6.552453 -10.641839 6.753455 -9.646135 21.399688 2.103208 -4.301184 9.050976 0.000000 0.000000 0.000000 -1.420345 -16.587300 -52.974697 52.274568 -53.872554 28.001220 41.582715 20.839626 15.802461 0.000000 0.000000 0.000000 -7.125000 0.000000 0.000000 9.044611 9.459835 7.532105 0.000000 0.000000 0.000000 -4.311582 -26.028472 63.159459 -72.827708 -58.852087 -45.185987 -32.894067 76.390710 61.346642 0.000000 0.000000 0.000000 7.125000 0.000000 0.000000 119.917231 -80.976537 128.104132
0.867101 17.565299 8.149455 -8.318143 -2.243153 13.017305 0.000000 0.000000 0.000000 -12.065274 -27.167508 4.081902 0.000150 0.075679 0.207844 -3.105640 31.421105 -24.997477 0.031499 1.140231 3.134719 0.000000 0.000000 0.000000 21.642469 26.226205 -0.740508 -0.057297 -1.544167 4.247407 1.149372 -22.744368 -22.705417 -0.060448 -1.584975 4.359973 5.498421 1.454870 4.310951 2.803090 2.717155 -7.135125 -0.426893 1.037190 -9.914878 -5.834641 -6.545137 -11.066275 7.056594 -9.631101 21.769283 2.265240 -4.279217 9.296429 0.000000 0.000000 0.000000 -1.577429 -16.362515 -53.198450 51.734661 -53.671516 27.565634 41.549512 20.739269 15.954244 0.000000 0.000000 0.000000 -7.125000 0.000000 0.000000 8.994259 9.278194 7.522335 0.000000 0.000000 0.000000 -4.006358 -20.174455 62.711120 -74.405900 -59.059210 -46.537890 -41.155507 85.284648 58.524825 0.000000 0.000000 0.000000 7.125000 0.000000 0.000000 138.688913 -83.355656 143.301988
0.856316 17.563970 8.149975 -8.459137 -2.386194 12.976970 0.000000 0.000000 0.000000 -11.728615 -26.421925 3.793210 0.000151 0.086866 0.238606 -3.019962 31.001731 -24.527916 0.017355 0.850622 2.337884 0.000000 0.000000 0.000000 22.021098 26.716809 -0.290919 -0.053240 -1.488608 4.094359 1.165823 -22.997737 -23.083768 -0.076186 -1.780988 4.900703 5.424731 1.592179 4.354458 2.903744 2.904334 -7.069380 -0.303037 1.140408 -9.867695 -6.082518 -6.415832 -11.710409 6.912776 -9.365562 22.220610 2.271332 -4.165047 9.560988 0.000000 0.000000 0.000000 -1.810033 -16.137575 -53.176553 51.413138 -53.549810 27.306782 42.037671 20.849346 16.357054 0.000000 0.000000 0.000000 -7.125000 0.000000 0.000000 9.222070 8.641706 7.836678 0.000000 0.000000 0.000000 -2.848267 -17.215472 62.182282 -67.599351 -58.007476 -40.731199 -43.999703 89.150738 57.621370 0.000000 0.000000 0.000000 7.125000 0.000000 0.000000 148.617346 -83.776169 151.999320
0.864255 17.557860 8.141471 -8.314433 -2.929899 13.088758 0.000000 0.000000 0.000000 -12.068245 -26.488928 3.906696 0.000149 0.073269 0.201291 -3.096224 31.406700 -25.052919 0.027950 1.077321 2.961573 0.000000 0.000000 0.000000 21.779518 27.159904 -0.022570 -0.041815 -1.318895 3.626670 1.197301 -23.099864 -22.968381 -0.074589 -1.761722 4.847547 5.327847 1.812552 4.314053 2.814371 3.179520 -7.039089 -0.377016 1.279791 -9.796047 -5.847656 -6.220175 -12.136474 6.594755 -9.054625 22.420454 2.151876 -4.019995 9.660615 0.000000 0.000000 0.000000 -2.003164 -15.937357 -52.985438 51.135372 -53.443227 27.083514 42.535081 20.454027 16.608904 0.000000 0.000000 0.000000 -7.125000 0.000000 0.000000 9.482017 8.185972 8.150864 0.000000 0.000000 0.000000 -1.481441 -18.676433 62.050625 -62.456307 -56.929723 -36.392257 -35.663207 78.081134 59.143778 0.000000 0.000000 0.000000 7.125000 0.000000 0.000000 120.929371 -82.748602 127.395035
0.877764 17.552379 8.107822 -9.111032 -3.888434 13.141280 0.000000 0.000000 0.000000 -11.327970 -26.047737 4.132952 0.000051 -0.015026 -0.041232 -3.201914 31.904508 -25.587125 0.041472 1.313084 3.610724 0.000000 0.000000 0.000000 22.582267 27.343853 -0.082059 -0.038475 -1.266157 3.481469 1.206529 -22.636453 -21.806664 -0.040489 -1.284893 3.533269 6.309620 2.083205 4.942462 2.792995 3.692661 -7.066651 -1.030316 1.442482 -10.132717 -5.529030 -5.809678 -12.148458 6.845112 -8.613667 22.515962 2.244867 -3.760284 9.661459 0.000000 0.000000 0.000000 -1.752355 -15.763090 -52.681675 51.163851 -53.454118 27.106409 42.463244 19.566878 16.757911 0.000000 0.000000 0.000000 -7.125000 0.000000 0.000000 9.407003 8.018103 8.116518 0.000000 0.000000 0.000000 -0.086348 -23.679132 62.654658 -64.691106 -57.433886 -38.270880 -20.617231 64.437312 62.816427 0.000000 0.000000 0.000000 7.125000 0.000000 0.000000 101.748092 -78.041272 113.960236
0.904624 17.543938 8.073184 -9.924695 -3.941267 13.623884 0.000000 0.000000 0.000000 -10.153257 -26.322691 3.591671 0.000000 -0.011277 -0.031021 -3.225033 32.067640 -25.894733 0.066830 1.666119 4.583866 0.000000 0.000000 0.000000 23.133209 27.375275 -0.740459 -0.035927 -1.223716 3.364543 1.174079 -22.290717 -21.386998 -0.042586 -1.331609 3.661590 7.902914 2.083133 5.077008 2.753796 3.875694 -7.285179 -1.980545 1.393636 -10.371775 -3.848822 -5.193438 -12.741553 5.447735 -7.808916 23.359763 1.573496 -3.366806 9.882099 0.000000 0.000000 0.000000 -1.340426 -15.570253 -52.703960 51.683126 -53.652138 27.524148 42.285873 19.193906 16.823486 0.000000 0.000000 0.000000 -7.125000 0.000000 0.000000 9.283688 7.986602 8.012478 0.000000 0.000000 0.000000 1.944402 -29.532987 62.290492 -67.161335 -57.934218 -40.358374 4.027946 38.274775 66.258648 0.000000 0.000000 0.000000 7.125000 0.000000 0.000000 93.194539 -71.195900 113.262453
0.900175 17.543903 8.061821 -10.053713 -4.357624 13.779534 0.000000 0.000000 0.000000 -10.109702 -26.614395 3.866786 0.000251 -0.105090 -0.288696 -3.393142 32.737121 -26.392655 0.079269 1.816177 4.997926 0.000000 0.000000 0.000000 23.199024 27.752754 -0.661386 -0.029124 -1.101417 3.027922 1.207505 -22.342180 -21.098816 -0.051165 -1.459337 4.013631 8.148181 2.285903 5.121781 2.644664 4.176752 -7.382662 -2.273783 1.509200 -10.461369 -2.900719 -4.551720 -13.085780 5.455977 -7.165795 24.071051 1.496509 -2.962792 10.131830 0.000000 0.000000 0.000000 -1.249602 -15.631608 -53.029285 51.672974 -53.648323 27.515912 42.813326 19.155191 17.360571 0.000000 0.000000 0.000000 -7.125000 0.000000 0.000000 9.500642 7.158685 8.360970 0.000000 0.000000 0.000000 0.783506 -36.173966 63.565695 -63.977853 -57.277645 -37.670403 24.819165 13.726784 68.967658 0.000000 0.000000 0.000000 7.125000 0.000000 0.000000 95.336279 -66.693955 121.186021
